<svg t="1601259294865" class="icon" viewBox="0 0 1024 1024" version="1.1" xmlns="http://www.w3.org/2000/svg" p-id="3505" width="200" height="200"><path d="M500.48 94.944l-0.416 0.672H239.68L-0.032 511.104 239.68 926.496h546.08l1.696 2.56 91.04-159.36 22.112-38.112h-0.352l0.352-0.608-26.72-32h38.176l0.256-0.416 0.352 0.416 111.232-187.264-111.232-187.296-0.128 0.224-0.48-0.8h-40.32l26.912-32.608-111.232-194.944-0.256 0.416-1.024-1.696h-285.696z m-111.968 196.224h264.064l-22.56 32.608h-1.024l102.304 171.296h37.344l-11.808 13.984 15.232 18.56h-40.8l-102.304 171.296h1.152l22.304 32.608h-265.312L259.52 511.008l128.928-219.936z" fill="#29ABE2" p-id="3506"></path></svg>
